<svg viewBox="0 0 120 120" xmlns="http://www.w3.org/2000/svg" xmlns:xlink="http://www.w3.org/1999/xlink" width="120.000000" height="120.000000" fill="none" customFrame="#000000">
	<defs>
		<linearGradient id="paint_linear_3" x1="33.0363617" x2="90.186882" y1="23.4510765" y2="96.4549103" gradientUnits="userSpaceOnUse">
			<stop stop-color="rgb(194,194,194)" offset="0" stop-opacity="1" />
			<stop stop-color="rgb(219,219,219)" offset="1" stop-opacity="1" />
		</linearGradient>
		<g id="pixso_custom_effect_3">
			<effect x="-1.666667" y="1.666667" visibility="visible" fill="rgb(0,0,0)" fill-opacity="0.200000003" effectType="innerShadow" stdDeviation="3.33333325" radius="0" />
		</g>
		<filter id="filter_3" width="44.799805" height="54.307861" x="36.799805" y="32.000000" filterUnits="userSpaceOnUse" customEffect="url(#pixso_custom_effect_3)" color-interpolation-filters="sRGB">
			<feFlood flood-opacity="0" result="BackgroundImageFix" />
			<feBlend result="shape" in="SourceGraphic" in2="BackgroundImageFix" mode="normal" />
			<feOffset dx="-1.666667" dy="1.666667" in="SourceAlpha" />
			<feGaussianBlur stdDeviation="1.11111104" />
			<feComposite k2="-1" k3="1" in2="SourceAlpha" operator="arithmetic" />
			<feColorMatrix type="matrix" values="0 0 0 0 0 0 0 0 0 0 0 0 0 0 0 0 0 0 0.2 0 " />
			<feBlend result="effect_innerShadow_1" in2="shape" mode="normal" />
		</filter>
	</defs>
	<rect id="ic_风险内容_120_light" width="120.000000" height="120.000000" x="0.000000" y="0.000000" />
	<circle id="椭圆形" cx="60" cy="60" r="60" fill="rgb(0,0,0)" fill-opacity="0.0470588244" />
	<circle id="椭圆形" cx="60" cy="60" r="59.1666679" stroke="rgb(151,151,151)" stroke-opacity="0" stroke-width="1.66666663" />
	<ellipse id="椭圆形" rx="47.999996" ry="47.999973" cx="59.9999962" cy="59.9999733" fill="url(#paint_linear_3)" />
	<ellipse id="椭圆形" rx="47.166664" ry="47.166641" cx="59.9999962" cy="59.9999733" stroke="rgb(151,151,151)" stroke-opacity="0" stroke-width="1.66666663" />
	<ellipse id="椭圆形" rx="13.599999" ry="1.600025" cx="59.9999008" cy="86.4000778" fill="rgb(84,84,84)" />
	<ellipse id="椭圆形" rx="12.766666" ry="0.766692" cx="59.9999008" cy="86.4000778" stroke="rgb(151,151,151)" stroke-opacity="0" stroke-width="1.66666663" />
	<path id="形状结合备份 3" d="M58.3427 34.3421L42.3571 42.0315C40.4263 42.9602 39.2002 44.9018 39.2002 47.0306L39.2002 58.9082C39.2002 71.9142 47.5516 83.2601 59.7385 87.4238C59.8731 87.4698 60.5166 87.6681 61.0098 87.8193C61.3946 87.9374 61.8059 87.9373 62.1907 87.8192C62.6866 87.667 63.3352 87.467 63.4691 87.4213C75.6523 83.2551 84.0002 71.9109 84.0002 58.9082L84.0002 47.0306C84.0002 44.9018 82.7741 42.9602 80.8433 42.0315L64.8577 34.3421C62.8006 33.3526 60.3998 33.3526 58.3427 34.3421ZM58.6202 49.3919C58.5014 47.7763 59.7802 46.4 61.4002 46.4C63.0202 46.4 64.299 47.7763 64.1802 49.3919L63.0102 65.3041C62.9482 66.1474 62.2458 66.8 61.4002 66.8C60.5545 66.8 59.8522 66.1474 59.7902 65.3041L58.6202 49.3919ZM61.4002 69.2001C59.7434 69.2001 58.4002 70.5433 58.4002 72.2C58.4002 73.8568 59.7434 75.2 61.4002 75.2C63.0569 75.2 64.4002 73.8568 64.4002 72.2C64.4002 70.5433 63.0569 69.2001 61.4002 69.2001Z" fill="rgb(84,84,84)" fill-rule="evenodd" />
	<g filter="url(#filter_3)">
		<path id="形状结合" d="M55.9423 32.7421L39.9567 40.4315C38.0259 41.3602 36.7998 43.3019 36.7998 45.4306L36.7998 57.3082C36.7998 70.3142 45.1513 81.6601 57.3381 85.8237C57.4727 85.8697 58.1162 86.068 58.6094 86.2193C58.9942 86.3373 59.4055 86.3373 59.7903 86.2192C60.2862 86.067 60.9348 85.867 61.0687 85.8212C73.2519 81.655 81.5998 70.3109 81.5998 57.3082L81.5998 45.4306C81.5998 43.3019 80.3737 41.3602 78.4429 40.4315L62.4573 32.7421C60.4002 31.7526 57.9994 31.7526 55.9423 32.7421ZM56.2198 47.7919C56.101 46.1763 57.3798 44.8 58.9998 44.8C60.6198 44.8 61.8986 46.1763 61.7798 47.7919L60.6098 63.704C60.5478 64.5474 59.8455 65.2 58.9998 65.2C58.1542 65.2 57.4518 64.5474 57.3898 63.704L56.2198 47.7919ZM58.9998 67.6C57.3431 67.6 55.9998 68.9432 55.9998 70.6C55.9998 72.2567 57.3431 73.5999 58.9998 73.5999C60.6566 73.5999 61.9998 72.2567 61.9998 70.6C61.9998 68.9432 60.6566 67.6 58.9998 67.6Z" fill="rgb(255,255,255)" fill-rule="evenodd" />
	</g>
</svg>
